<?xml version="1.0" encoding="UTF-8"?>
<svg width="19px" height="20px" viewBox="0 0 19 20" version="1.1" xmlns="http://www.w3.org/2000/svg" xmlns:xlink="http://www.w3.org/1999/xlink">
    <!-- Generator: Sketch 59.1 (86144) - https://sketch.com -->
    <title>Group 8</title>
    <desc>Created with Sketch.</desc>
    <defs>
        <polygon id="path-1" points="5.7e-05 0.192138614 19 0.192138614 19 20 5.7e-05 20"></polygon>
    </defs>
    <g id="Symbols" stroke="none" stroke-width="1" fill="none" fill-rule="evenodd">
        <g id="Desktop-/-Byline-Bar-/-Social" transform="translate(-1287.000000, -23.000000)">
            <g id="Group-8" transform="translate(1287.000000, 23.000000)">
                <g id="Group-3">
                    <mask id="mask-2" fill="white">
                        <use xlink:href="#path-1"></use>
                    </mask>
                    <g id="Clip-2"></g>
                    <path d="M4.289877,12.0576832 C4.289877,11.8430297 4.463917,11.6616436 4.669877,11.6616436 L14.321307,11.6616436 C14.527267,11.6616436 14.701307,11.8430297 14.701307,12.0576832 L14.701307,18.0198614 C14.701307,18.2343168 14.527267,18.415901 14.321307,18.415901 L4.669877,18.415901 C4.463917,18.415901 4.289877,18.2343168 4.289877,18.0198614 L4.289877,12.0576832 Z M16.240877,7.88382178 C15.821167,7.88382178 15.480877,7.52916832 15.480877,7.09194059 C15.480877,6.65431683 15.821167,6.29966337 16.240877,6.29966337 C16.660587,6.29966337 17.000877,6.65431683 17.000877,7.09194059 C17.000877,7.52916832 16.660587,7.88382178 16.240877,7.88382178 L16.240877,7.88382178 Z M14.701307,4.12639604 L4.289877,4.12639604 L4.289877,2.17233663 C4.289877,1.95768317 4.463917,1.77629703 4.669877,1.77629703 L14.321307,1.77629703 C14.527267,1.77629703 14.701307,1.95768317 14.701307,2.17233663 L14.701307,4.12639604 Z M5.7e-05,4.91847525 L5.7e-05,13.2353069 C5.7e-05,13.6707525 0.341867,14.0273861 0.760057,14.0273861 L2.769877,14.0273861 L2.769877,18.0198614 C2.769877,19.1087723 3.624877,20.0000594 4.669877,20.0000594 L14.321307,20.0000594 C15.366307,20.0000594 16.221307,19.1087723 16.221307,18.0198614 L16.221307,14.0273861 L18.240057,14.0273861 C18.657867,14.0273861 19.000057,13.6707525 19.000057,13.2353069 L19.000057,4.91847525 C19.000057,4.48283168 18.657867,4.12639604 18.240057,4.12639604 L16.221307,4.12639604 L16.221307,2.17233663 C16.221307,1.08322772 15.366307,0.192138614 14.321307,0.192138614 L4.669877,0.192138614 C3.624877,0.192138614 2.769877,1.08322772 2.769877,2.17233663 L2.769877,4.12639604 L0.760057,4.12639604 C0.341867,4.12639604 5.7e-05,4.48283168 5.7e-05,4.91847525 L5.7e-05,4.91847525 Z" id="Fill-1" fill="#FFFFFF" mask="url(#mask-2)"></path>
                </g>
                <path d="M6.19375554,16 L12.8062445,16 C12.91281,16 13,16.075 13,16.1666667 L13,16.8333333 C13,16.9246667 12.91281,17 12.8062445,17 L6.19375554,17 C6.08699624,17 6,16.9246667 6,16.8333333 L6,16.1666667 C6,16.075 6.08699624,16 6.19375554,16" id="Fill-4" fill="#FFFFFF"></path>
                <path d="M6.19375554,13 L12.8062445,13 C12.91281,13 13,13.075 13,13.1666667 L13,13.8333333 C13,13.9248333 12.91281,14 12.8062445,14 L6.19375554,14 C6.08699624,14 6,13.9248333 6,13.8333333 L6,13.1666667 C6,13.075 6.08699624,13 6.19375554,13" id="Fill-6" fill="#FFFFFF"></path>
            </g>
        </g>
    </g>
</svg>